<?xml version="1.0" standalone="no"?>
<!DOCTYPE svg PUBLIC "-//W3C//DTD SVG 20010904//EN"
 "http://www.w3.org/TR/2001/REC-SVG-20010904/DTD/svg10.dtd">
<svg version="1.0" xmlns="http://www.w3.org/2000/svg"
 width="16.000000pt" height="16.000000pt" viewBox="0 0 16.000000 16.000000"
 preserveAspectRatio="xMidYMid meet">
<metadata>
Created by potrace 1.11, written by Peter Selinger 2001-2013
</metadata>
<g transform="translate(0.000000,16.000000) scale(0.000750,-0.000750)"
fill="#000000" stroke="none">
<path d="M10250 21323 c-1573 -69 -2991 -433 -4360 -1119 -2447 -1227 -4335
-3353 -5263 -5929 -710 -1970 -817 -4158 -306 -6210 607 -2430 2086 -4604
4132 -6069 1274 -911 2737 -1535 4257 -1815 1554 -286 3187 -226 4695 175
3383 899 6114 3406 7302 6704 511 1421 713 2959 588 4490 -148 1801 -743 3513
-1746 5020 -392 589 -778 1064 -1274 1569 -540 549 -1051 972 -1685 1396 -620
415 -1260 754 -1945 1030 -1271 512 -2634 771 -4015 763 -173 -1 -344 -3 -380
-5z m-4355 -4467 c118 -40 219 -101 299 -181 39 -39 150 -180 246 -312 147
-203 179 -242 200 -242 45 -1 174 -42 234 -74 75 -40 192 -150 235 -221 18
-30 72 -149 120 -263 110 -260 193 -438 289 -618 920 -1723 2587 -2918 4525
-3245 1036 -175 2103 -87 3097 255 345 119 775 315 1105 504 102 58 194 103
255 123 89 30 104 32 240 32 173 1 227 -12 380 -86 93 -46 116 -63 200 -147
52 -53 111 -123 130 -155 32 -56 213 -488 285 -681 82 -223 71 -474 -30 -674
-86 -171 -474 -633 -783 -933 -1251 -1211 -2965 -1941 -4711 -2005 -211 -7
-213 -5 69 -63 543 -110 1102 -155 1627 -132 271 12 478 30 678 58 159 23 309
28 395 15 289 -45 542 -234 669 -502 47 -98 67 -171 81 -289 13 -114 13 -706
-1 -828 -25 -227 -141 -449 -306 -586 -132 -109 -600 -367 -944 -520 -754
-334 -1646 -560 -2449 -621 -47 -4 -98 -9 -115 -11 -82 -12 -797 -16 -980 -5
-1413 83 -2735 522 -3905 1296 -634 419 -1236 963 -1725 1560 -233 284 -507
677 -691 990 -106 182 -320 599 -404 790 -306 690 -510 1417 -609 2170 -49
372 -56 486 -56 1005 0 401 4 529 18 675 65 654 179 1199 371 1770 123 366
157 434 268 546 116 117 275 192 433 206 l75 6 10 36 c5 20 34 136 65 259 30
122 64 246 75 275 11 29 20 76 20 105 0 185 96 400 241 538 108 102 205 156
354 195 110 29 313 22 420 -15z"/>
</g>
</svg>
